<svg xmlns="http://www.w3.org/2000/svg" viewBox="0 0 64 64" role="img" aria-label="WhatsApp">
  <circle cx="32" cy="32" r="30" fill="#25D366"/>
  <path fill="#fff" d="M18.8 47.1 21 39.4a16.1 16.1 0 1 1 6 5.7l-8.2 2Zm8.6-6.5.5.3a12.2 12.2 0 1 0-3.7-3.5l.3.5-1.2 4.1 4.1-1.4Z"/>
  <path fill="#fff" d="M39.2 34.7c-.6-.3-3.3-1.6-3.8-1.8-.5-.2-.9-.3-1.3.3-.4.6-1.5 1.8-1.8 2.2-.3.4-.7.4-1.2.1-.6-.3-2.4-.9-4.5-2.8-1.7-1.5-2.8-3.3-3.1-3.9-.3-.6 0-.9.3-1.2.3-.3.6-.7.9-1 .3-.4.4-.6.6-1 .2-.4.1-.8 0-1.1-.1-.3-1.3-3.1-1.8-4.2-.5-1.1-1-1-1.3-1h-1.1c-.4 0-1.1.2-1.6.8-.5.6-2.1 2-2.1 4.9 0 2.9 2.1 5.7 2.4 6.1.3.4 4.1 6.3 9.9 8.8 1.4.6 2.5 1 3.3 1.3 1.4.4 2.7.4 3.7.2 1.1-.2 3.3-1.4 3.8-2.7.5-1.3.5-2.4.3-2.7-.2-.3-.5-.4-1.1-.7Z"/>
</svg>
